/* XPM */
static char *bee0393579154b7cfcfd17c6e6e1653bh4DFCuDgRh0azWOp[] = {
/* columns rows colors chars-per-pixel */
"32 32 20 1 ",
"  c None",
". c black",
"X c gray19",
"o c gray25",
"O c #505050",
"+ c #606060",
"@ c gray44",
"# c #806A2A",
"$ c #A88C38",
"% c #C0A040",
"& c #E0BA4A",
"* c #808080",
"= c #909090",
"- c #A0A0A0",
"; c gray69",
": c #C0C0C0",
"> c #D0D0D0",
", c gray88",
"< c gray94",
"1 c white",
/* pixels */
"                                ",
"      %        ;+     %         ",
"      %       +1@+    %         ",
"      %$     +,1=@o   %$        ",
"      %$%   +,1,;=@o  %$        ",
"      %$%  +-1,>;=@+o %$        ",
"      %$%$+->1,>;=*++o%$%       ",
"      %$%+=>>1,>;=*@+o%$%       ",
"      %$%+;>>1,>;=*@+O%$%$      ",
"      %$++;>1<>;=;=@@O%$%$      ",
"      %$+=>>1<>;=;-*@O%$%$%     ",
"      %++=>1<,>;=;-*@+%$%$%     ",
"      %+*;>1<,>;=;-**+%$%$% ... ",
"      +*=;>1<,>;=;-**+%$%$%.....",
"      +*=:1<,>;;=;-**+%$%$%.....",
"      +==:1<,>;;=;-**@%$%$#.....",
"      $%%&&&%%%%$$%%%$&&%$#.....",
"      $%%&&&%%%%$$%%%$&#%##.....",
"      XXX-&&%-@......+%%%oo.....",
"      XXXX==-@.......++OOoo.... ",
"      XXXX==@........++OOoo.... ",
"      XXXX==@........+++Ooo.... ",
"      *XXX==@......**@++Ooo...  ",
"      *XXX&&%......**@++Ooo...  ",
"      *:XXXX......:==@++Oo...   ",
"      *::*XX...*--:=@*++Oo..    ",
"      *::*XX...*--:=@*++o...    ",
"      *::*XX...*--:==*++o..     ",
"      *::*.....*--:==*++..      ",
"      *::*.....*--:==*++.       ",
"      .::*.....*--:==...        ",
"       ...............          "
};
