/* XPM */
static char *dd72d65986024ce7cc79086a2a6f5566fpXLtpLzfqn3MEvW[] = {
/* columns rows colors chars-per-pixel */
"32 34 191 2 ",
"   c None",
".  c #580001",
"X  c #630000",
"o  c #66000C",
"O  c #67001F",
"+  c #6D001C",
"@  c #72001E",
"#  c #660020",
"$  c #6A0221",
"%  c #6D0C23",
"&  c #740F25",
"*  c #771E27",
"=  c #7B1926",
"-  c #7C1928",
";  c #742828",
":  c #43626A",
">  c #5F6367",
",  c #9E000B",
"<  c #9F0011",
"1  c #9F001A",
"2  c #981F17",
"3  c #A0000F",
"4  c #A2031D",
"5  c #A00F1F",
"6  c #A0101F",
"7  c #9A2117",
"8  c #800F23",
"9  c #94042A",
"0  c #95092B",
"q  c #8F1026",
"w  c #821B26",
"e  c #881926",
"r  c #9F1520",
"t  c #9F1821",
"y  c #A01420",
"u  c #A11B22",
"i  c #B11525",
"p  c #BE1131",
"a  c #9B3228",
"s  c #A22323",
"d  c #A82726",
"f  c #A52C27",
"g  c #AD272C",
"h  c #A62929",
"j  c #A82C28",
"k  c #B52D2D",
"l  c #B42528",
"z  c #A63329",
"x  c #AA342A",
"c  c #A93D2D",
"v  c #B23C2D",
"b  c #BB3E2F",
"n  c #AE2534",
"m  c #BE2E39",
"M  c #A33535",
"N  c #AA3436",
"B  c #A53934",
"V  c #AF3939",
"C  c #B63339",
"Z  c #B53838",
"A  c #C02133",
"S  c #C13932",
"D  c #9B4434",
"F  c #9C473B",
"G  c #9D4E3F",
"H  c #AE412D",
"J  c #B74C2F",
"K  c #AB4B33",
"L  c #A84834",
"P  c #B44C34",
"I  c #BB4D35",
"U  c #BE463D",
"Y  c #B54737",
"T  c #AD5437",
"R  c #AD543A",
"E  c #AF5C3B",
"W  c #B55137",
"Q  c #BC5136",
"!  c #BC543A",
"~  c #BD5C3C",
"^  c #BF613E",
"/  c #C6562E",
"(  c #C3453E",
")  c #C24A3D",
"_  c #C64E37",
"`  c #C75930",
"'  c #C3553D",
"]  c #C75D3A",
"[  c #C1623F",
"{  c #C8613D",
"}  c #CE693F",
"|  c #A05D41",
" . c #9A6D45",
".. c #BA6040",
"X. c #BC6C4D",
"o. c #B36A45",
"O. c #A57648",
"+. c #AA7B4C",
"@. c #A77648",
"#. c #BA7E4C",
"$. c #AB6D57",
"%. c #B26D54",
"&. c #C24540",
"*. c #CA4742",
"=. c #C44C41",
"-. c #CA4E43",
";. c #D44B46",
":. c #D44042",
">. c #C45542",
",. c #C55C43",
"<. c #C95C43",
"1. c #CF5244",
"2. c #D35445",
"3. c #D75E46",
"4. c #C46542",
"5. c #CA6542",
"6. c #CA6D45",
"7. c #C8694F",
"8. c #C76943",
"9. c #D26944",
"0. c #CB7147",
"q. c #C5744D",
"w. c #CF7248",
"e. c #CA7B4C",
"r. c #D27449",
"t. c #DA764B",
"y. c #DB794D",
"u. c #D17849",
"i. c #E5794D",
"p. c #AD834F",
"a. c #A48A5C",
"s. c #B58853",
"d. c #BA9157",
"f. c #AA8F60",
"g. c #AC9465",
"h. c #AE9B68",
"j. c #B3A87E",
"k. c #CB824E",
"l. c #C2844F",
"z. c #CC8455",
"x. c #CB8C54",
"c. c #C88355",
"v. c #D38453",
"b. c #DB8451",
"n. c #D28C54",
"m. c #DA8C56",
"M. c #D38858",
"N. c #C29156",
"B. c #CB9156",
"V. c #C4965A",
"C. c #CB945A",
"Z. c #CC9A5C",
"A. c #C29A5B",
"S. c #D49359",
"D. c #D6945A",
"F. c #E7945B",
"G. c #D48E64",
"H. c #D29C6D",
"J. c #DD9474",
"K. c #CCA563",
"L. c #CDAA65",
"P. c #CAA36D",
"I. c #CEAC6A",
"U. c #C0A36E",
"Y. c #D2AF69",
"T. c #DBAD69",
"R. c #DBA169",
"E. c #CEB26C",
"W. c #D1B26B",
"Q. c #DBB26C",
"!. c #DABC6D",
"~. c #CDAB72",
"^. c #CEB175",
"/. c #CEBB76",
"(. c #CFBD7C",
"). c #C8B579",
"_. c #D4BC77",
"`. c #D4BD79",
"'. c #DCB477",
"]. c #E8A16A",
"[. c #E0B470",
"{. c #D0C27E",
"}. c #E7C77A",
"|. c #B5AD83",
" X c #CFC483",
".X c #DBCB84",
"XX c #DBC993",
"oX c #DEDE9D",
"OX c #DFD9A0",
"+X c #E3E5A7",
"@X c #E9F2B3",
/* pixels */
"                                                                ",
"                                                                ",
"                          6.6.6.6.                              ",
"                        6.6.` 6.6.6.                            ",
"                      >.w.z.OX8.6.} +X                          ",
"                      :.) 6.H./ ` S J.                          ",
"                      D.C.~.~.XXXXP.n.                          ",
"            /.x.5.n.L.Q.W._.`.oX@X+X.XI.k.6.5.B./.              ",
"          (.Q.b.] l.K.O.+.O.O.a.j.|.g.Y.o.5.t.v.[.(.            ",
"        (.T.0.6.L  .d.. @ 0 0 a 2 7 X A.g.| ! 5.e.Q.`.          ",
"        C.u.4.5.B  .V.9 M <.<.w.w.r.D l.`.h.F Y <.r.x.          ",
"        <.5.>.C F +.z.=.<.0.6.6.6.6.w.5.k._.h.G N C n           ",
"        V Z Z D p.z.) 0.6.6.6.6.6.6.6.6.5.k.`.f.o & %           ",
"      = = $ ; s.z.( 0.6.6.6.4.4.4.4.4.6.6.{ n.@.+ = e w         ",
"    - w =   !.M.m ,.0.e.e.[ u s s s t ~ 0.e.y.      b v x       ",
"  z x v     L.v.' 6.k.E.).3 f c c c f 1 N.{.R.      y.0.8.f     ",
"j 6.6.t.    U *.,.6.k.L.V.4 L K.K.L.K 4 N.L.m.      t.6.6.6.    ",
"6.6.6.t.    U *.,.6.6.4.s K K.6.8.(.I.T u ^ y.      t.6.6.6.    ",
"6.6.6.t.    U *.,.6.6.[ u K K.8.(. XI.T y ~ t.      2.=.=.=.    ",
"=.=.=.2.    U *.,.6.6.[ u K Y.(. X XW.T y ~ t.      k h h h     ",
"h h h k     ) ;.,.0.6.' , z E W.E.W.o.z 1 Q t.    6.8.4.4.4.    ",
"[ [ [ 4.6.    ( -.,.e.K.U.< f E E E z 1 #.^.].    9.W w.6.6.    ",
"6.6.0.P t.    ( ;.' x.E.I.I u 5 6 5 r I Z.}.K.  ~ x v 5.w.{     ",
"{ 0.5.x v [     &.1.5.q.q.6.~ ~ ~ ~ ~ 6.m.C.  6.i.H o.P...^.    ",
"'.W I.R P i.      M N ( ( <.5.w.w.w.r.R K       5.2.7.G.Y       ",
"  Z H.,.3.6.      e - B N N N R R R R * q         &.  A         ",
"  &.p ( &.        g 8 # % % % # # O $ e d s                     ",
"                ! I P D             $ K P _ Q                   ",
"              8.b.e.r.w.              w.r.k.F.                  ",
"            6.y.Z.Z.5.6.              6.5.B.Q.L.                ",
"            ! S.L.S.5.                  6.9.x.T.N.              ",
"          c i #.x.6.X.                  X.w.6.Y l H             ",
"        6.0.<.g J $.: > > > > > > > > > : %.J C <.0.6.          ",
"                                                                "
};
