/* XPM */
static char *e84b8269531044d090c94c98b61f2489nvhuu70wkUIMT4tt[] = {
/* columns rows colors chars-per-pixel */
"32 32 27 1 ",
"  c #3F4140",
". c None",
"X c black",
"o c #7BFAC1",
"O c #A9E9CA",
"+ c #D7F0EA",
"@ c #1FBE68",
"# c #166435",
"$ c #0A4B20",
"% c #068837",
"& c #3F4140",
"* c #8E9595",
"= c #2F7952",
"- c #05B44E",
"; c #15D56C",
": c #7FD7A2",
"> c #ADAAAF",
", c #0D9B47",
"< c #CCCDD2",
"1 c #30FD9D",
"2 c #0F1F17",
"3 c #4BE691",
"4 c #FAFBF9",
"5 c #76747C",
"6 c #030606",
"7 c #16FB8B",
"8 c white",
/* pixels */
"                                ",
"                                ",
"          XXXXXXX               ",
"         X.oO+o@#X              ",
"         X##$$$$$$X             ",
"        X%&&**=----XX           ",
"       X-;;@:>>#,,--$X          ",
"      X;;;@@-:<>%-,--$X         ",
"     X-;1o@@--><>%,,-@2X        ",
"    X-;344@@--@><5&&&&&2X       ",
"   X%;;343333;<4>5&&&&,2X       ",
"   X$;;33333344>>3@,,,,%2X      ",
"  X%%@@;33o+44<<;;,,,%,%2X      ",
"  X6,-@;33++4+7;;-,,%%%%=X      ",
"  X6%-;;;<<<<O;;-,,,%%%=2X      ",
"  X6%%-;@<<<<1---,,%%%$22X      ",
"  X6%%%@5*<3117-,,%%%$2,@X      ",
"   X#%%&&*371177,,%%$2#-X       ",
"   X6%%#&:-77777;%%$2%@@X       ",
"    X6&&=,--;;7---#2%-@X        ",
"    X%=&%%,------=2%-;X         ",
"     X=%%%,-----,2#--X          ",
"      X%,,-----#$,--X           ",
"       X%--;;;@6,=%%X           ",
"        X%=%%&&&&=&X            ",
"        X%;o+O1@%,X             ",
"         X@:+O;,#,X             ",
"          XXXXXXXX              ",
"                                ",
"                                ",
"                                ",
"                                "
};
