/* XPM */
static char *ccc4c7c3b3fe4e2ed9224a08ade8cd02xnuExfY3T13pPKrj[] = {
/* columns rows colors chars-per-pixel */
"32 29 174 2 ",
"   c None",
".  c black",
"X  c #1C1C01",
"o  c #200000",
"O  c #3D0B00",
"+  c #2A1D0C",
"@  c #2B1D0C",
"#  c #2A1E0C",
"$  c #2D1F0D",
"%  c #2C1D0E",
"&  c #2E1E10",
"*  c #002A19",
"=  c #2C200F",
"-  c #3D2315",
";  c #363020",
":  c #550E07",
">  c #590013",
",  c #64001D",
"<  c #600C19",
"1  c #62161B",
"2  c #402C1B",
"3  c #670C20",
"4  c #73142B",
"5  c #751928",
"6  c #7B0036",
"7  c #6E2825",
"8  c #4C4630",
"9  c #6E563D",
"0  c #584543",
"q  c #6B5247",
"w  c #6C5246",
"e  c #6D5347",
"r  c #705447",
"t  c #765A4D",
"y  c #7A6649",
"u  c #8A0F37",
"i  c #810038",
"p  c #8A003D",
"a  c #89003F",
"s  c #830F39",
"d  c #8E0B3E",
"f  c #8C0C3E",
"g  c #8D0C3F",
"h  c #841338",
"j  c #8D143E",
"k  c #8F0841",
"l  c #8F0B40",
"z  c #8F0C40",
"x  c #920041",
"c  c #920043",
"v  c #900B40",
"b  c #900B41",
"n  c #910B41",
"m  c #920B40",
"M  c #920B41",
"N  c #940943",
"B  c #900F40",
"V  c #950C43",
"C  c #960B46",
"Z  c #980D44",
"A  c #9A0C45",
"S  c #9E0C47",
"D  c #9F0E47",
"F  c #951545",
"G  c #9E1647",
"H  c #931843",
"J  c #992944",
"K  c #9E2549",
"L  c #AD5050",
"P  c #B05E50",
"I  c #95714F",
"U  c #95724F",
"Y  c #806252",
"T  c #957250",
"R  c #9A7452",
"E  c #9C7452",
"W  c #9C7552",
"Q  c #9D7553",
"!  c #9C7652",
"~  c #997354",
"^  c #9C7654",
"/  c #9D7656",
"(  c #9F7854",
")  c #9C7558",
"_  c #A56E4C",
"`  c #B66F4E",
"'  c #BC6A4A",
"]  c #A17853",
"[  c #A07854",
"{  c #A17955",
"}  c #A37A54",
"|  c #A67C57",
" . c #A87E57",
".. c #AE785A",
"X. c #C66A5C",
"o. c #D57252",
"O. c #D37562",
"+. c #AC815A",
"@. c #AD825B",
"#. c #B3865E",
"$. c #B4875F",
"%. c #B78061",
"&. c #CD8D67",
"*. c #D48C66",
"=. c #DA9067",
"-. c #D4956D",
";. c #C29A73",
":. c #C69E76",
">. c #E2936B",
",. c #E2946D",
"<. c #EA996F",
"1. c #E99A6F",
"2. c #F1956E",
"3. c #EE9C71",
"4. c #F09B71",
"5. c #CDA87E",
"6. c #EEA176",
"7. c #D8B789",
"8. c #D3BC8D",
"9. c #D8B98B",
"0. c #DCBD8E",
"q. c #DEBF8F",
"w. c #FFBC8A",
"e. c #DFC292",
"r. c #E0C291",
"t. c #E3C393",
"y. c #E1C493",
"u. c #E2C594",
"i. c #E6CA97",
"p. c #EBCD9A",
"a. c #E9CE9B",
"s. c #ECD39F",
"d. c #EED39F",
"f. c #ECD59F",
"g. c #EFD5A0",
"h. c #F1D5A0",
"j. c #F1D8A2",
"k. c #F2D9A3",
"l. c #F7D9A2",
"z. c #F2DAA4",
"x. c #F4DBA5",
"c. c #F1DCA4",
"v. c #F3DDA6",
"b. c #F4DCA5",
"n. c #F5DCA5",
"m. c #F5DCA6",
"M. c #F5DDA6",
"N. c #F4DDA7",
"B. c #F5DEA7",
"V. c #F6DEA7",
"C. c #F7DFA8",
"Z. c #F7E0A8",
"A. c #F8E0A8",
"S. c #F8E1A8",
"D. c #F8E1A9",
"F. c #F9E1A9",
"G. c #FAE1A9",
"H. c #F8E2A9",
"J. c #F9E2A9",
"K. c #F9E2AA",
"L. c #FFE4AB",
"P. c #FBE5AC",
"I. c #FDE5AC",
"U. c #FFE7AD",
"Y. c #FFE7AE",
"T. c #FBE8AE",
"R. c #FFE8AE",
"E. c #FFEBB1",
"W. c #FFECB1",
"Q. c #FFF0B4",
"!. c #FFF5B8",
"~. c #FFFABC",
"^. c #FFFFC5",
"/. c #FFFFC8",
/* pixels */
"                                                                ",
"                                                                ",
"                                                                ",
"                                                                ",
"                              R     0                           ",
"                          E E $.@.^ ) r q                       ",
"                        E @.[ E E ] [ ~ t e                     ",
"                    >.U #.[ | ( T U [  .^ Y e                   ",
"                    4.=.      *.3.1.                            ",
"                      J         ' o.                            ",
"                      x B       1.X.a                           ",
"                      Z V z   6 O.P i G                         ",
"                      l S Z m j x > h N Z                       ",
"                        d C u : F 4 3 f m m                     ",
"                            s O 5 1 < f m m                     ",
"                                o , H l S                       ",
"                        + % - . _ L a K                         ",
"                              . ` 2.7 . X &                     ",
"                                E.l.f.c.    = + +               ",
"                                !.n.Z.W.          + +           ",
"                              ~.n.C.n.R.                %       ",
"                            n.W.J.g.j.U.                        ",
"                            ^.J.j.:.i.J.Q.                      ",
"                          J.h.s.0...p.J.n.                      ",
"                          /.r.7.y.5.z.n.J.U.                    ",
"                          L.;.e.9.u.P.x.J.n.                    ",
"                        T.s.%.p.r.0.J.x.J.n.                    ",
"                      ,.w.-.; y 2 8.R.c.U.J.                    ",
"                                . * &.6.9 8                     "
};
