/* XPM */
static char *f77094dd163042d58c3eb91819f5b301EvfEl4j4sryNiAmc[] = {
/* columns rows colors chars-per-pixel */
"32 32 14 1 ",
"  c None",
". c black",
"X c #400000",
"o c #600000",
"O c #505050",
"+ c #606060",
"@ c gray44",
"# c #800000",
"$ c #A00000",
"% c #C00000",
"& c #909090",
"* c gray69",
"= c #C0C0C0",
"- c #D0D0D0",
/* pixels */
"                                ",
"                                ",
"                                ",
"             ....               ",
"          ...-*&&...            ",
"        ..--*-*oo&&&..          ",
"       .--oo#-&o$##&&&.         ",
"      .-oo#$#$#$#$o#o&&.        ",
"     .-o##$#$$$#$##o#X&&.       ",
"     .-o#$#$%$#$##o#ooX&.       ",
"    .-o#$#$$$#$##o#oooX&&.      ",
"   .-o##$%$%$$##o#oooXoX&&.     ",
"   .-o#$#$%$$#$o#o#oooXX&&.     ",
"   .*o$#$%$***&ooXoooXoXX@.     ",
"  .*o##$$$*--*&@XoXoooXoX@@.    ",
"  .*o#$$%$=--=&@XXoooooXX@@..   ",
"  .--$#$$%*==&@+XoXoooX**@+...  ",
"  .*@#$$%$**&&@+XXooooo@+++...  ",
"  .*o$#$$$&&&@+OXoXoXoXXX@+.... ",
"  .*o##$$$o@+OOXoXoooXoXX@+.... ",
"   .&o$#$$#oXXXoXoooXoXX@+..... ",
"   .&o#$$#o#oXoXoooXoXXX@+..... ",
"   .&o##$$#oooooooooXXXX@+..... ",
"    .&o#$#o#oooXooXooXX@+...... ",
"     .&o#o#o#oXoXooXXX@+......  ",
"     .&oo#o#oXoXoXXXX@@+......  ",
"      .&oooo*@XXXXXX@@+......   ",
"       .&&XX*@XXX@@@++......    ",
"        ..@@@+@@@@++.......     ",
"          ...++++........       ",
"             ........           ",
"                                "
};
